<svg width="480" height="281" viewBox="0 0 480 281" fill="none" xmlns="http://www.w3.org/2000/svg">
<path d="M478.631 1.36279H1.36426V278.794H478.631V1.36279Z" fill="#1A1818"/>
<path d="M478.634 1.36279H1.36206V278.794H478.634V1.36279Z" stroke="white" stroke-width="1.225" stroke-miterlimit="10"/>
<path d="M237.415 32.9481L270.528 115.274L182.189 123.168L237.415 32.9481Z" fill="#D80028"/>
<path d="M270.356 115.256L292.73 123.112L237.432 32.9659L270.074 114.181L270.356 115.256Z" fill="white"/>
<path d="M52.8257 216.924C52.8257 220.36 51.3253 223.565 47.4025 223.565V225.558C55.9403 225.558 64.4804 225.112 73.1411 225.112C81.6834 225.112 98.5604 225.112 102.486 226.112L105.372 212.822L103.519 212.268C100.521 218.36 96.9484 221.347 88.1717 221.347H62.049C62.049 212.711 61.3591 199.873 61.3591 189.247C61.3591 179.064 62.049 162.238 62.049 156.927C62.049 153.493 63.5539 150.282 67.479 150.282V148.291C64.5943 148.291 61.1269 148.736 57.2085 148.736C53.7501 148.736 50.2871 148.291 46.1321 148.291V150.282C52.3658 151.173 52.8302 152.063 52.8302 189.251L52.8257 216.924Z" fill="white"/>
<path d="M115.527 192.549C115.527 175.307 123.29 161.559 141.649 161.559C160.009 161.559 167.788 175.307 167.788 192.549C167.788 209.792 160.033 223.538 141.649 223.538C123.265 223.538 115.527 209.792 115.527 192.549ZM106.192 192.549C106.192 211.858 121.225 226.56 141.654 226.56C162.083 226.56 177.118 211.863 177.118 192.549C177.118 173.236 162.094 158.543 141.649 158.543C121.205 158.543 106.187 173.24 106.187 192.549" fill="white"/>
<path d="M197.308 192.549C197.308 175.307 205.065 161.559 223.431 161.559C241.797 161.559 249.554 175.307 249.554 192.549C249.554 209.792 241.797 223.538 223.431 223.538C205.065 223.538 197.308 209.792 197.308 192.549ZM187.974 192.549C187.974 211.858 203.006 226.56 223.436 226.56C243.865 226.56 258.898 211.863 258.898 192.549C258.898 173.236 243.869 158.543 223.436 158.543C203.002 158.543 187.974 173.24 187.974 192.549Z" fill="white"/>
<path d="M278.492 158.543H276.728L272.988 212.8C272.401 220.999 271.617 222.598 266.408 223.729V225.426C269.255 225.426 272.004 225.059 274.855 225.059C277.804 225.059 280.66 225.426 283.406 225.426V223.729C280.057 223.36 277.315 221.095 277.315 214.501C277.315 212.052 277.315 207.714 277.507 205.264L279.374 175.688H279.869L308.256 223.36L332.615 175.779H333.01L334.97 209.228C335.075 210.736 335.269 213.746 335.269 217.329C335.269 220.716 334.481 223.453 330.358 223.729V225.426C332.814 225.426 335.767 225.059 338.619 225.059C342.057 225.059 345.004 225.426 347.851 225.426V223.729C343.533 223.075 342.939 222.224 342.553 214.599L339.69 158.543H338.018L310.509 212.524L278.492 158.543Z" fill="white"/>
<path d="M375.224 159.672C372.274 159.672 369.325 160.049 365.987 160.049C363.038 160.049 360.09 159.672 357.056 159.672V161.369C360.892 161.369 361.968 164.099 361.968 167.019L362.455 218.08C362.455 221.001 360.892 223.734 358.13 223.734V225.435C360.095 225.435 363.042 225.057 365.991 225.057C369.34 225.057 372.279 225.435 374.337 225.435V223.734C371.397 223.734 369.818 221.001 369.818 218.08L370.318 167.019C370.318 164.099 371.397 161.369 375.23 161.369L375.224 159.672Z" fill="white"/>
<path d="M424.997 170.41L424.602 159.859C419.5 160.047 414.58 158.546 409.476 158.546C396.609 158.546 385.409 164.102 385.409 177.756C385.409 202.062 420.083 191.603 420.083 211.584C420.083 219.872 413.307 223.54 405.551 223.54C398.964 223.54 391.105 220.719 388.845 214.027H387.082L387.475 223.825C393.378 225.557 399.491 226.477 405.644 226.56C417.728 226.56 426.96 220.153 426.96 207.906C426.96 185.39 392.284 194.344 392.284 174.087C392.284 165.513 399.949 161.554 407.913 161.554C414.097 161.554 421.173 164.289 423.231 170.412L424.997 170.41Z" fill="white"/>
<path d="M182.061 122.959L270.213 115.196L292.58 123.043C292.58 123.043 213.69 129.454 211.374 129.777C209.059 130.1 182.061 122.959 182.061 122.959Z" fill="#4C4D4F"/>
</svg>
